<svg xmlns="http://www.w3.org/2000/svg" width="960" height="500" viewBox="0 0 960 500" role="img" aria-label="Cumulative option proxy P and L"><rect width="100%" height="100%" fill="white"/><text x="480" y="24" text-anchor="middle" font-family="sans-serif" font-size="18">Cumulative option-proxy P&amp;L</text><rect x="92" y="38" width="838" height="390" fill="none" stroke="#6b7280"/><line x1="92" y1="64.90" x2="930" y2="64.90" stroke="#9ca3af" stroke-dasharray="4 4"/><line x1="87" y1="428.00" x2="92" y2="428.00" stroke="#374151"/><text x="83" y="432.00" text-anchor="end" font-family="sans-serif" font-size="11">$-2,656</text><line x1="87" y1="330.50" x2="92" y2="330.50" stroke="#374151"/><text x="83" y="334.50" text-anchor="end" font-family="sans-serif" font-size="11">$-1,943</text><line x1="87" y1="233.00" x2="92" y2="233.00" stroke="#374151"/><text x="83" y="237.00" text-anchor="end" font-family="sans-serif" font-size="11">$-1,230</text><line x1="87" y1="135.50" x2="92" y2="135.50" stroke="#374151"/><text x="83" y="139.50" text-anchor="end" font-family="sans-serif" font-size="11">$-517</text><line x1="87" y1="38.00" x2="92" y2="38.00" stroke="#374151"/><text x="83" y="42.00" text-anchor="end" font-family="sans-serif" font-size="11">$197</text><line x1="92.00" y1="428" x2="92.00" y2="433" stroke="#374151"/><text x="92.00" y="450" text-anchor="middle" font-family="sans-serif" font-size="11">2024-02-16</text><line x1="259.60" y1="428" x2="259.60" y2="433" stroke="#374151"/><text x="259.60" y="450" text-anchor="middle" font-family="sans-serif" font-size="11">2025-03-03</text><line x1="427.20" y1="428" x2="427.20" y2="433" stroke="#374151"/><text x="427.20" y="450" text-anchor="middle" font-family="sans-serif" font-size="11">2025-04-14</text><line x1="594.80" y1="428" x2="594.80" y2="433" stroke="#374151"/><text x="594.80" y="450" text-anchor="middle" font-family="sans-serif" font-size="11">2025-11-17</text><line x1="762.40" y1="428" x2="762.40" y2="433" stroke="#374151"/><text x="762.40" y="450" text-anchor="middle" font-family="sans-serif" font-size="11">2026-02-20</text><line x1="930.00" y1="428" x2="930.00" y2="433" stroke="#374151"/><text x="930.00" y="450" text-anchor="middle" font-family="sans-serif" font-size="11">2026-07-31</text><polyline fill="none" stroke="#2563eb" stroke-width="2.5" points="92.00,88.33 147.87,88.33 203.73,119.30 259.60,119.30 315.47,119.30 371.33,176.45 427.20,176.45 483.07,176.45 538.93,224.06 594.80,224.06 650.67,249.66 706.53,249.66 762.40,249.66 818.27,249.66 874.13,249.66 930.00,298.59"/><text x="92" y="58" font-family="sans-serif" font-size="12" fill="#2563eb">qqq_opening_drive_continuation_240m_v5</text><polyline fill="none" stroke="#dc2626" stroke-width="2.5" points="92.00,64.90 147.87,85.22 203.73,112.37 259.60,138.11 315.47,172.98 371.33,172.98 427.20,211.10 483.07,239.52 538.93,239.52 594.80,278.13 650.67,278.13 706.53,306.88 762.40,328.34 818.27,370.16 874.13,401.10 930.00,401.10"/><text x="92" y="76" font-family="sans-serif" font-size="12" fill="#dc2626">spy_opening_drive_continuation_240m_v5</text></svg>